<svg xmlns="http://www.w3.org/2000/svg" viewBox="0 0 48 48" width="144" height="144"><path fill="#f4511e" d="M36.683 43H11.317a4 4 0 0 1-3.996-3.813l-1.272-27.14A1 1 0 0 1 7.048 11h33.904a1 1 0 0 1 .999 1.047l-1.272 27.14A4 4 0 0 1 36.683 43z"/><path fill="#f4511e" d="M32.5 11.5h-2C30.5 7.364 27.584 4 24 4s-6.5 3.364-6.5 7.5h-2C15.5 6.262 19.313 2 24 2s8.5 4.262 8.5 9.5z"/><path fill="#fafafa" d="M24.248 25.688c-2.741-1.002-4.405-1.743-4.405-3.577 0-1.851 1.776-3.195 4.224-3.195 1.685 0 3.159.66 3.888 1.052.124.067.474.277.672.41l.13.087.958-1.558-.157-.103c-.772-.521-2.854-1.733-5.49-1.733-3.459 0-6.067 2.166-6.067 5.039 0 3.257 2.983 4.347 5.615 5.309 3.07 1.122 4.934 1.975 4.934 4.349 0 1.828-2.067 3.314-4.609 3.314-2.864 0-5.326-2.105-5.349-2.125l-.128-.118-1.046 1.542.106.087c.712.577 3.276 2.458 6.416 2.458 3.619 0 6.454-2.266 6.454-5.158-.001-3.835-3.266-5.027-6.146-6.08z"/></svg>