<svg xmlns="http://www.w3.org/2000/svg" viewBox="0 0 48 48" width="144" height="144"><path fill="#FFC107" d="M17.5 44c-3.6 0-6.5-1.6-6.5-3.5s2.9-3.5 6.5-3.5 6.5 1.6 6.5 3.5-2.9 3.5-6.5 3.5zM37 40.5c0-1.9-2.9-3.5-6.5-3.5S24 38.6 24 40.5s2.9 3.5 6.5 3.5 6.5-1.6 6.5-3.5z"/><path fill="#37474F" d="M37.2 22.2c-.1-.3-.2-.6-.3-1 .1-.5.1-1 .1-1.5 0-1.4-.1-2.6-.1-3.6C36.9 9.4 31.1 4 24 4S11 9.4 11 16.1v3.6c0 .5 0 1 .1 1.5-.1.3-.2.6-.3 1-1.9 2.7-3.8 6-3.8 8.5C7 35.5 8.4 35 8.4 35c.6 0 1.6-1 2.5-2.1C13 38.8 18 43 24 43s11-4.2 13.1-10.1C38 34 39 35 39.6 35c0 0 1.4.5 1.4-4.3 0-2.5-1.9-5.9-3.8-8.5z"/><path fill="#ECEFF1" d="M14.7 23c-.5 1.5-.7 3.1-.7 4.8C14 35.1 18.5 41 24 41s10-5.9 10-13.2c0-1.7-.3-3.3-.7-4.8H14.7z"/><path fill="#FFF" d="M23 13.5c0 1.9-1.1 3.5-2.5 3.5S18 15.4 18 13.5s1.1-3.5 2.5-3.5 2.5 1.6 2.5 3.5zm4.5-3.5c-1.4 0-2.5 1.6-2.5 3.5s1.1 3.5 2.5 3.5 2.5-1.6 2.5-3.5-1.1-3.5-2.5-3.5z"/><path fill="#37474F" d="M22 13.5c0 .8-.4 1.5-1 1.5s-1-.7-1-1.5.4-1.5 1-1.5 1 .7 1 1.5zm5-1.5c-.6 0-1 .7-1 1.5s.4-.5 1-.5 1 1.3 1 .5-.4-1.5-1-1.5z"/><path fill="#FFC107" d="M32 19.5c0 .8-3.6 2.5-8 2.5s-8-1.7-8-2.5 3.6-1.5 8-1.5 8 .7 8 1.5z"/><path fill="#FF3D00" d="M38.7 21.2c-.4-1.5-1-2.2-2.1-1.3 0 0-5.9 3.1-12.5 3.1v.1-.1c-6.6 0-12.5-3.1-12.5-3.1-1.1-.8-1.7-.2-2.1 1.3-.4 1.5-.7 2 .7 2.8.1.1 1.4.8 3.4 1.7-.6 3.5-.5 6.8-.5 7 .1 1.5 1.3 1.3 2.9 1.3 1.6-.1 2.9 0 2.9-1.6 0-.9 0-2.9.3-5 1.6.3 3.2.6 5 .6 7.3 0 13.7-3.9 13.9-4 1.2-.7.9-1.2.6-2.8z"/><path fill="#DD2C00" d="M13.2 27.7c1.6.6 3.5 1.3 5.6 1.7 0-.6.1-1.3.2-2-2.1-.5-4-1.1-5.5-1.7-.1.7-.2 1.4-.3 2z"/></svg>