<svg xmlns="http://www.w3.org/2000/svg" viewBox="0 0 48 48" width="144" height="144"><ellipse cx="10.083" cy="12.5" fill="#f4511e" rx="3.917" ry="3.5"/><path fill="#f4511e" d="M7.146 17.5s2.324 1.584 4.229 3.333c1.823 1.674 3.083 3.083 2.292 6.542-1.533 6.699-4.896 12.417-4.896 12.417l-5.875-3.229c1.34-1.193 3.915-3.556 5.792-5.75 2.122-2.481 3.356-4.828.979-6.542-3.465-2.498-5.104-3.062-5.104-3.062L7.146 17.5zm10.896-9.417s-2.479 7.729-5.979 10.885c1.563 1 3.406 2.125 3.406 2.125s6.437-7.52 7.531-11.051c-1.75-.5-4.958-1.959-4.958-1.959z"/><path fill="#f4511e" d="M18.697 13.515S42 6.125 44.353 17.044c.727 3.81.885 12.774.253 16.678S42 43 30 40c.077-.582.103-1.311.514-2.842 8.468 2.655 8.72-3.154 8.72-3.154V18.013c-.032-5.216-5.15-6.871-21.39 0l.853-4.498z"/><path fill="#f4511e" d="m35.641 28.359-3.375 1 2.109 7.61 4.094-1.781zM21.344 14.813s-.719 3.531-4.656 8c1.125 1 2.125 1.969 2.125 1.969s5.094-4.313 7.344-8.5a458.48 458.48 0 0 1-4.813-1.469z"/><path fill="#f4511e" d="m15.719 29 5.26.042S19.406 34 24.125 33.563s5.438.063 8.844-2.438c.625 1.469.813 2.469.813 2.469S30.063 36.917 21 36.917c-7.594 0-5.281-7.917-5.281-7.917zM21 19h16v3H21z"/><path fill="#f4511e" d="M24 20h6v14h-6z"/><path fill="#f4511e" d="M16 25h21v3H16z"/></svg>